<?xml version="1.0" encoding="utf-8"?>
<!-- Generator: Adobe Illustrator 16.0.0, SVG Export Plug-In . SVG Version: 6.00 Build 0)  -->
<!DOCTYPE svg PUBLIC "-//W3C//DTD SVG 1.1//EN" "http://www.w3.org/Graphics/SVG/1.1/DTD/svg11.dtd">
<svg version="1.1" id="Layer_1" xmlns="http://www.w3.org/2000/svg" xmlns:xlink="http://www.w3.org/1999/xlink" x="0px" y="0px"
	 width="16px" height="16px" viewBox="0 0 16 16" enable-background="new 0 0 16 16" xml:space="preserve">
<rect fill="#00529B" width="16" height="16"/>
<path fill="#FFFFFF" d="M4.804,13.962c-0.285-0.071-0.557-0.178-0.726-0.311c-0.291-0.229-0.435-1.027-1.651-1.977
	c0,0-0.461-0.731,0.131-1.898C3.151,8.611,3.893,7.742,4.154,7.4c0.262-0.343,0.498-0.862,0.777-2.165
	c0.28-1.303,0.578-2.196,0.702-2.525c0.063-0.167,0.271-0.24,0.453-0.195C6.258,2.558,6.406,2.708,6.38,2.982
	C6.33,3.546,6.001,5.685,5.989,5.967C5.983,6.133,6.056,6.425,6.208,6.463c0.108,0.026,0.255-0.077,0.441-0.45
	c0.447-0.894,1.313-3.002,1.546-3.477C8.42,2.08,8.637,2.05,8.754,2.08C8.811,2.094,8.843,2.12,8.843,2.12s0.005,0.002,0.013,0.003
	C8.927,2.141,9.27,2.249,9.146,2.662C9.01,3.125,7.844,6.134,7.776,6.44c-0.042,0.183-0.031,0.341,0.06,0.364
	c0.061,0.016,0.158-0.03,0.301-0.168c0.356-0.348,2.403-2.492,3.04-3.234c0.131-0.151,0.31-0.166,0.462-0.128
	c0.115,0.029,0.216,0.087,0.27,0.139c0.124,0.119,0.161,0.461,0.05,0.654C11.846,4.26,9.531,7.174,9.233,7.53
	C9.032,7.766,9.015,8.048,9.197,8.093C9.29,8.116,9.434,8.08,9.631,7.948c0.591-0.394,3.081-1.875,3.385-2.079
	c0.138-0.093,0.258-0.114,0.36-0.089c0.123,0.031,0.219,0.126,0.288,0.241c0.13,0.216,0.121,0.472-0.099,0.656
	c-0.22,0.183-3.467,2.694-4.058,3.386c-0.559,0.654-1.5,1.652-0.272,1.955c0.069,0.018,0.145,0.033,0.228,0.046
	c0.496,0.074,0.847,0.142,1.104,0.205c0.55,0.137,0.656,0.251,0.812,0.357c0.228,0.158,0.51,0.496,0.329,0.696
	s-0.768-0.057-1.041-0.026c-0.273,0.029-0.273,0.029-0.273,0.029s-1.181,0.017-1.986,0.241"/>
</svg>
