<?xml version="1.0" encoding="UTF-8" standalone="no"?>
<svg width="36px" height="36px" viewBox="0 0 36 36" version="1.1" xmlns="http://www.w3.org/2000/svg" xmlns:xlink="http://www.w3.org/1999/xlink">
    <!-- Generator: sketchtool 3.6.1 (26313) - http://www.bohemiancoding.com/sketch -->
    <title>facebook copy</title>
    <desc>Created with sketchtool.</desc>
    <defs></defs>
    <g id="Symbols" stroke="none" stroke-width="1" fill="none" fill-rule="evenodd">
        <g id="home" transform="translate(-1203.000000, -105.000000)" fill="#00A858">
            <g id="Header">
                <g id="redes_sociais" transform="translate(1203.000000, 105.000000)">
                    <path d="M22.4781421,18.6324977 L19.5491803,18.6324977 L19.5491803,29.0748564 L15.2094718,29.0748564 L15.2094718,18.6324977 L13.1466302,18.6324977 L13.1466302,14.9440664 L15.2094718,14.9440664 L15.2094718,12.5570594 C15.2094718,10.850363 16.0200364,8.17829948 19.5892532,8.17829948 L22.8023679,8.19196033 L22.8023679,11.7720155 L20.4699454,11.7720155 C20.0883424,11.7720155 19.5491803,11.9632675 19.5491803,12.7765438 L19.5491803,14.9477093 L22.856102,14.9477093 L22.4781421,18.6324977 Z M17.9990893,0 C8.07559199,0 0,8.07629841 0,17.9995446 C0,27.9246123 8.07559199,36 17.9990893,36 C27.9253188,36 36,27.9246123 36,17.9995446 C36,8.07629841 27.9253188,0 17.9990893,0 L17.9990893,0 Z" id="facebook-copy"></path>
                </g>
            </g>
        </g>
    </g>
</svg>