<?xml version="1.0" encoding="utf-8"?>
<!-- Generator: Adobe Illustrator 16.0.0, SVG Export Plug-In . SVG Version: 6.00 Build 0)  -->
<!DOCTYPE svg PUBLIC "-//W3C//DTD SVG 1.1//EN" "http://www.w3.org/Graphics/SVG/1.1/DTD/svg11.dtd">
<svg version="1.1" id="Layer_1" xmlns="http://www.w3.org/2000/svg" xmlns:xlink="http://www.w3.org/1999/xlink" x="0px" y="0px"
	 width="36px" height="36px" viewBox="0 0 36 36" enable-background="new 0 0 36 36" xml:space="preserve">
<title>facebook copy</title>
<desc>Created with sketchtool.</desc>
<g>
	<path fill="#00A858" d="M23.838,8.237H12.162c-2.16,0-3.925,1.766-3.925,3.926v11.675c0,2.164,1.766,3.928,3.925,3.928h11.676
		c2.164,0,3.926-1.764,3.926-3.928V12.163C27.764,10.004,26.002,8.237,23.838,8.237z M18,25.145c-3.945,0-7.141-3.201-7.141-7.144
		c0-3.946,3.196-7.143,7.141-7.143c3.945,0,7.145,3.197,7.145,7.143C25.145,21.943,21.945,25.145,18,25.145z M25.007,12.187
		c-0.638,0-1.149-0.512-1.149-1.15c0-0.632,0.511-1.149,1.149-1.149c0.632,0,1.147,0.517,1.147,1.149
		C26.154,11.675,25.639,12.187,25.007,12.187z"/>
	<circle fill="#00A858" cx="18" cy="18" r="5.66"/>
	<path fill="#00A858" d="M17.999,0C8.076,0,0,8.076,0,18c0,9.925,8.076,18,17.999,18C27.926,36,36,27.925,36,18
		C36,8.076,27.926,0,17.999,0z M29.072,23.837c0,2.882-2.352,5.233-5.234,5.233H12.162c-2.878,0-5.235-2.35-5.235-5.233V12.162
		c0-2.879,2.357-5.234,5.235-5.234h11.676c2.883,0,5.234,2.356,5.234,5.235V23.837z"/>
</g>
</svg>
