<?xml version="1.0" encoding="utf-8"?>
<!-- Generator: Adobe Illustrator 16.0.0, SVG Export Plug-In . SVG Version: 6.00 Build 0)  -->
<!DOCTYPE svg PUBLIC "-//W3C//DTD SVG 1.1//EN" "http://www.w3.org/Graphics/SVG/1.1/DTD/svg11.dtd">
<svg version="1.1" id="Layer_1" xmlns="http://www.w3.org/2000/svg" xmlns:xlink="http://www.w3.org/1999/xlink" x="0px" y="0px"
	 width="36px" height="36px" viewBox="0 0 36 36" enable-background="new 0 0 36 36" xml:space="preserve">
<title>facebook copy</title>
<desc>Created with sketchtool.</desc>
<g>
	<polygon fill="#00A858" points="15.721,20.945 21.371,17.854 15.721,14.896 	"/>
	<path fill="#00A858" d="M17.999,0C8.076,0,0,8.076,0,18c0,9.925,8.076,18,17.999,18C27.926,36,36,27.925,36,18
		C36,8.076,27.926,0,17.999,0z M28.808,21.532c0,2.119-1.719,3.837-3.839,3.837H11.031c-2.12,0-3.839-1.718-3.839-3.837v-7.063
		c0-2.119,1.719-3.838,3.839-3.838h13.938c2.12,0,3.839,1.719,3.839,3.838V21.532z"/>
</g>
</svg>
