<?xml version="1.0" encoding="utf-8"?>
<!-- Generator: Adobe Illustrator 16.0.0, SVG Export Plug-In . SVG Version: 6.00 Build 0)  -->
<!DOCTYPE svg PUBLIC "-//W3C//DTD SVG 1.1//EN" "http://www.w3.org/Graphics/SVG/1.1/DTD/svg11.dtd">
<svg version="1.1" id="Layer_1" xmlns="http://www.w3.org/2000/svg" xmlns:xlink="http://www.w3.org/1999/xlink" x="0px" y="0px"
	 width="102px" height="44px" viewBox="0 0 102 44" enable-background="new 0 0 102 44" xml:space="preserve">
<title>acesso_infi</title>
<desc>Created with sketchtool.</desc>
<path id="Shape" fill="#FFFFFF" d="M22,0C9.822,0,0,9.835,0,22c0,4.457,1.321,8.541,4,12l-3,6c-0.368,2.159,0.838,3.367,3,3l6-3
	c3.499,2.734,7.577,4,12,4c12.12,0.057,22-9.836,22-22C44,9.835,34.12,0,22,0"/>
<path id="Shape_1_" d="M23,16c1.955,0,4-1.987,4-4c0-2.955-1.987-5-4-5c-2.955,0-5,1.987-5,5C18,14.013,20.045,16,23,16"/>
<path id="Shape_2_" d="M23,18c-2.955,0-5,1.965-5,4v12c0,1.977,1.987,4,5,4c1.955,0,4-1.965,4-4V22C26.941,20.023,24.955,18,23,18"
	/>
<g>
	<path fill="#FFFFFF" d="M52.36,17.19l-0.481,1.734h-1.583l2.065-6.757h2.005l2.096,6.757h-1.645l-0.521-1.734H52.36z
		 M54.075,16.048l-0.421-1.434c-0.121-0.401-0.241-0.902-0.342-1.304h-0.02c-0.101,0.401-0.2,0.913-0.311,1.304l-0.401,1.434H54.075
		z"/>
	<path fill="#FFFFFF" d="M60.856,18.805c-0.271,0.12-0.782,0.22-1.363,0.22c-1.584,0-2.597-0.962-2.597-2.506
		c0-1.433,0.982-2.606,2.807-2.606c0.401,0,0.842,0.07,1.163,0.19l-0.24,1.133c-0.181-0.08-0.451-0.15-0.853-0.15
		c-0.802,0-1.323,0.571-1.313,1.373c0,0.902,0.602,1.374,1.344,1.374c0.36,0,0.642-0.06,0.872-0.15L60.856,18.805z"/>
	<path fill="#FFFFFF" d="M62.765,16.96c0.051,0.631,0.672,0.932,1.384,0.932c0.521,0,0.942-0.07,1.354-0.2l0.2,1.032
		c-0.501,0.201-1.112,0.301-1.774,0.301c-1.664,0-2.616-0.962-2.616-2.496c0-1.243,0.771-2.617,2.476-2.617
		c1.584,0,2.186,1.233,2.186,2.446c0,0.261-0.03,0.491-0.05,0.602H62.765z M64.56,15.917c0-0.371-0.16-0.993-0.862-0.993
		c-0.642,0-0.902,0.582-0.942,0.993H64.56z"/>
	<path fill="#FFFFFF" d="M66.879,17.591c0.28,0.17,0.862,0.371,1.313,0.371c0.461,0,0.651-0.161,0.651-0.411
		s-0.15-0.371-0.722-0.562c-1.013-0.341-1.403-0.892-1.394-1.474c0-0.912,0.782-1.604,1.995-1.604c0.571,0,1.083,0.13,1.383,0.281
		l-0.271,1.053c-0.221-0.12-0.642-0.281-1.063-0.281c-0.371,0-0.581,0.15-0.581,0.401c0,0.231,0.19,0.351,0.792,0.562
		c0.932,0.321,1.323,0.792,1.333,1.514c0,0.913-0.722,1.584-2.125,1.584c-0.642,0-1.213-0.14-1.584-0.341L66.879,17.591z"/>
	<path fill="#FFFFFF" d="M71.232,17.591c0.28,0.17,0.862,0.371,1.313,0.371c0.461,0,0.651-0.161,0.651-0.411
		s-0.15-0.371-0.722-0.562c-1.013-0.341-1.403-0.892-1.394-1.474c0-0.912,0.782-1.604,1.995-1.604c0.571,0,1.083,0.13,1.383,0.281
		l-0.271,1.053c-0.221-0.12-0.642-0.281-1.063-0.281c-0.371,0-0.581,0.15-0.581,0.401c0,0.231,0.19,0.351,0.792,0.562
		c0.932,0.321,1.323,0.792,1.333,1.514c0,0.913-0.722,1.584-2.125,1.584c-0.642,0-1.213-0.14-1.584-0.341L71.232,17.591z"/>
	<path fill="#FFFFFF" d="M80.439,16.418c0,1.794-1.273,2.617-2.587,2.617c-1.434,0-2.536-0.942-2.536-2.526s1.042-2.597,2.616-2.597
		C79.437,13.912,80.439,14.945,80.439,16.418z M76.89,16.469c0,0.842,0.352,1.474,1.003,1.474c0.592,0,0.973-0.591,0.973-1.474
		c0-0.732-0.281-1.474-0.973-1.474C77.161,14.995,76.89,15.747,76.89,16.469z"/>
	<path fill="#FFFFFF" d="M86.198,18.925l-0.09-0.491h-0.03c-0.321,0.391-0.822,0.602-1.403,0.602c-0.993,0-1.584-0.722-1.584-1.504
		c0-1.273,1.143-1.885,2.877-1.875v-0.07c0-0.261-0.141-0.631-0.893-0.631c-0.501,0-1.032,0.17-1.354,0.371l-0.28-0.982
		c0.341-0.19,1.013-0.431,1.904-0.431c1.635,0,2.156,0.962,2.156,2.115v1.705c0,0.471,0.02,0.922,0.069,1.193H86.198z
		 M85.216,11.887l0.862,1.524h-1.043l-1.232-1.524H85.216z M86.018,16.609c-0.802-0.01-1.423,0.181-1.423,0.772
		c0,0.391,0.26,0.582,0.601,0.582c0.382,0,0.692-0.25,0.792-0.562c0.021-0.08,0.03-0.17,0.03-0.261V16.609z"/>
	<path fill="#FFFFFF" d="M52.32,24.207v6.757h-1.534v-6.757H52.32z"/>
	<path fill="#FFFFFF" d="M53.625,27.626c0-0.612-0.02-1.133-0.04-1.564h1.323l0.07,0.672h0.03c0.2-0.311,0.701-0.782,1.514-0.782
		c1.003,0,1.754,0.662,1.754,2.105v2.907h-1.523v-2.717c0-0.632-0.221-1.063-0.771-1.063c-0.422,0-0.672,0.291-0.772,0.571
		c-0.04,0.09-0.06,0.24-0.06,0.381v2.827h-1.524V27.626z"/>
	<path fill="#FFFFFF" d="M59.675,30.964v-3.779h-0.642v-1.123h0.642v-0.19c0-0.592,0.181-1.243,0.621-1.644
		c0.381-0.361,0.912-0.492,1.354-0.492c0.341,0,0.602,0.041,0.813,0.101l-0.061,1.173c-0.13-0.04-0.291-0.07-0.491-0.07
		c-0.501,0-0.712,0.392-0.712,0.872v0.251h0.982v1.123h-0.973v3.779H59.675z"/>
	<path fill="#FFFFFF" d="M67.668,28.458c0,1.794-1.273,2.616-2.587,2.616c-1.434,0-2.536-0.942-2.536-2.526s1.042-2.597,2.616-2.597
		C66.665,25.951,67.668,26.984,67.668,28.458z M64.118,28.508c0,0.842,0.352,1.474,1.003,1.474c0.592,0,0.973-0.592,0.973-1.474
		c0-0.731-0.281-1.474-0.973-1.474C64.39,27.034,64.118,27.786,64.118,28.508z"/>
	<path fill="#FFFFFF" d="M68.613,27.676c0-0.722-0.02-1.193-0.04-1.614h1.313l0.05,0.902h0.04c0.251-0.712,0.853-1.013,1.323-1.013
		c0.141,0,0.211,0,0.321,0.021v1.434c-0.11-0.021-0.24-0.04-0.411-0.04c-0.562,0-0.942,0.301-1.043,0.771
		c-0.02,0.101-0.029,0.221-0.029,0.341v2.486h-1.524V27.676z"/>
	<path fill="#FFFFFF" d="M72.426,27.626c0-0.612-0.02-1.133-0.04-1.564h1.283l0.07,0.662h0.03c0.21-0.312,0.642-0.772,1.483-0.772
		c0.632,0,1.133,0.321,1.344,0.832h0.02c0.181-0.25,0.401-0.451,0.632-0.591c0.271-0.161,0.571-0.241,0.933-0.241
		c0.942,0,1.653,0.662,1.653,2.126v2.887h-1.483v-2.667c0-0.712-0.23-1.122-0.722-1.122c-0.351,0-0.602,0.24-0.702,0.531
		c-0.04,0.11-0.06,0.271-0.06,0.391v2.867h-1.483v-2.747c0-0.621-0.221-1.042-0.702-1.042c-0.391,0-0.621,0.301-0.712,0.551
		c-0.05,0.12-0.06,0.261-0.06,0.381v2.857h-1.484V27.626z"/>
	<path fill="#FFFFFF" d="M83.841,30.964l-0.09-0.491h-0.03c-0.321,0.391-0.822,0.602-1.403,0.602c-0.993,0-1.584-0.722-1.584-1.504
		c0-1.273,1.143-1.885,2.877-1.875v-0.069c0-0.261-0.141-0.632-0.893-0.632c-0.501,0-1.032,0.17-1.354,0.371l-0.28-0.982
		c0.341-0.19,1.013-0.432,1.904-0.432c1.635,0,2.156,0.963,2.156,2.115v1.704c0,0.472,0.02,0.923,0.069,1.193H83.841z M83.66,28.648
		c-0.802-0.011-1.423,0.18-1.423,0.771c0,0.391,0.26,0.581,0.601,0.581c0.382,0,0.692-0.25,0.792-0.561
		c0.021-0.08,0.03-0.171,0.03-0.261V28.648z"/>
	<path fill="#FFFFFF" d="M90.03,30.844c-0.221,0.11-0.632,0.2-1.123,0.221l-0.19,0.341c0.381,0.09,0.731,0.351,0.731,0.812
		c0,0.702-0.621,0.933-1.203,0.933c-0.29,0-0.621-0.05-0.852-0.19l0.2-0.622c0.15,0.091,0.381,0.141,0.562,0.141
		c0.2,0,0.361-0.06,0.361-0.251c0-0.2-0.231-0.311-0.792-0.37l0.4-0.843c-1.273-0.19-2.055-1.103-2.055-2.456
		c0-1.434,0.982-2.606,2.807-2.606c0.401,0,0.842,0.07,1.163,0.19l-0.24,1.133c-0.181-0.08-0.451-0.15-0.853-0.15
		c-0.802,0-1.323,0.571-1.313,1.374c0,0.902,0.602,1.373,1.344,1.373c0.36,0,0.642-0.061,0.872-0.16L90.03,30.844z"/>
	<path fill="#FFFFFF" d="M93.702,30.964l-0.09-0.491h-0.03c-0.321,0.391-0.822,0.602-1.403,0.602c-0.993,0-1.584-0.722-1.584-1.504
		c0-1.273,1.143-1.885,2.877-1.875v-0.069c0-0.261-0.141-0.632-0.893-0.632c-0.501,0-1.032,0.17-1.354,0.371l-0.28-0.982
		c0.341-0.19,1.013-0.432,1.904-0.432c1.635,0,2.156,0.963,2.156,2.115v1.704c0,0.472,0.02,0.923,0.069,1.193H93.702z M91.437,25.37
		c-0.03-0.843,0.311-1.313,0.822-1.313c0.25,0,0.451,0.101,0.651,0.2c0.16,0.101,0.301,0.201,0.421,0.201
		c0.171,0,0.241-0.091,0.261-0.451h0.702c0.03,0.922-0.291,1.293-0.822,1.293c-0.28,0-0.481-0.11-0.691-0.221
		c-0.181-0.101-0.251-0.16-0.381-0.16c-0.141,0-0.231,0.15-0.241,0.451H91.437z M93.521,28.648c-0.802-0.011-1.423,0.18-1.423,0.771
		c0,0.391,0.26,0.581,0.601,0.581c0.382,0,0.692-0.25,0.792-0.561c0.021-0.08,0.03-0.171,0.03-0.261V28.648z"/>
	<path fill="#FFFFFF" d="M101.055,28.458c0,1.794-1.273,2.616-2.587,2.616c-1.434,0-2.536-0.942-2.536-2.526
		s1.042-2.597,2.616-2.597C100.052,25.951,101.055,26.984,101.055,28.458z M97.505,28.508c0,0.842,0.352,1.474,1.003,1.474
		c0.592,0,0.973-0.592,0.973-1.474c0-0.731-0.281-1.474-0.973-1.474C97.776,27.034,97.505,27.786,97.505,28.508z"/>
</g>
</svg>
