<?xml version="1.0" encoding="utf-8"?>
<!-- Generator: Adobe Illustrator 16.0.0, SVG Export Plug-In . SVG Version: 6.00 Build 0)  -->
<!DOCTYPE svg PUBLIC "-//W3C//DTD SVG 1.1//EN" "http://www.w3.org/Graphics/SVG/1.1/DTD/svg11.dtd">
<svg version="1.1" id="Layer_1" xmlns="http://www.w3.org/2000/svg" xmlns:xlink="http://www.w3.org/1999/xlink" x="0px" y="0px"
	 width="36px" height="36px" viewBox="0 0 36 36" enable-background="new 0 0 36 36" xml:space="preserve">
<title>Flickr@1x</title>
<desc>Created with Sketch.</desc>
<path fill="#00A858" d="M18,0C8.058,0,0,8.06,0,18c0,9.941,8.058,18,18,18c9.941,0,18-8.059,18-18C36,8.06,27.941,0,18,0z M11.25,24
	C8.351,24,6,21.537,6,18.5c0-3.038,2.351-5.5,5.25-5.5s5.25,2.462,5.25,5.5C16.5,21.537,14.149,24,11.25,24z M24.75,24
	c-2.899,0-5.25-2.463-5.25-5.5c0-3.038,2.351-5.5,5.25-5.5S30,15.462,30,18.5C30,21.537,27.649,24,24.75,24z"/>
</svg>
